<svg xmlns="http://www.w3.org/2000/svg"  viewBox="0 0 32 32" width="32px" height="32px" baseProfile="basic"><path fill="#e6a728" d="M23,7.268V2h-6l-1.57,3.029C9.069,5.329,4,10.565,4,17c0,2.371,0.697,4.576,1.884,6.438L3,29h6	l0.878-1.693C11.672,28.375,13.76,29,16,29c6.627,0,12-5.373,12-12C28,12.988,26.025,9.444,23,7.268z"/><path fill="#e83815" d="M17,2L3,29h5.5l4.926-9.5H18.5v3h4V2H17z M18.5,16.5h-3.518L18.5,9.714V16.5z"/><rect width="21.143" height="1" x=".528" y="13.966" fill="#fff" transform="rotate(-62.561 11.099 14.466)"/><polygon fill="#fff" points="18.854,22.354 18.146,21.646 21.793,18 18.146,14.354 18.854,13.646 22.854,17.646 22.854,18.354"/><path fill="#fff" d="M19,17h-4.904L19,7.542V17z M15.741,16H18v-4.356L15.741,16z"/><polygon fill="#fff" points="9.927,27.214 9.039,26.753 13.059,19 19,19 19,22 22,22 22,7 23,7 23,23 18,23 18,20 13.667,20"/><path fill="#302529" d="M16,30c-1.974,0-3.925-0.457-5.703-1.329L9.608,30H1.355l3.383-6.524C3.599,21.502,3,19.275,3,17	C3,10.249,8.137,4.678,14.8,4.07L16.392,1H24v5.768c3.14,2.456,5,6.243,5,10.232C29,24.168,23.168,30,16,30z M9.479,25.906	l0.911,0.542C12.096,27.464,14.036,28,16,28c6.065,0,11-4.935,11-11c0-3.521-1.714-6.855-4.584-8.921L22,7.78V3h-4.392l-1.556,3.001	l-0.576,0.027C9.602,6.304,5,11.124,5,17c0,2.088,0.597,4.128,1.728,5.899l0.31,0.486L4.645,28h3.747L9.479,25.906z"/></svg>